<?xml version="1.0" encoding="UTF-8" standalone="no"?>
<!-- Created with Inkscape (http://www.inkscape.org/) -->

<svg
   xmlns:dc="http://purl.org/dc/elements/1.1/"
   xmlns:cc="http://creativecommons.org/ns#"
   xmlns:rdf="http://www.w3.org/1999/02/22-rdf-syntax-ns#"
   xmlns:svg="http://www.w3.org/2000/svg"
   xmlns="http://www.w3.org/2000/svg"
   xmlns:sodipodi="http://sodipodi.sourceforge.net/DTD/sodipodi-0.dtd"
   xmlns:inkscape="http://www.inkscape.org/namespaces/inkscape"
   width="300"
   height="300"
   id="svg5291"
   version="1.1"
   inkscape:version="0.48.4 r9939"
   sodipodi:docname="New document 6">
  <defs
     id="defs5293" />
  <sodipodi:namedview
     id="base"
     pagecolor="#ffffff"
     bordercolor="#666666"
     borderopacity="1.0"
     inkscape:pageopacity="0.0"
     inkscape:pageshadow="2"
     inkscape:zoom="1.979899"
     inkscape:cx="87.157776"
     inkscape:cy="143.77914"
     inkscape:document-units="px"
     inkscape:current-layer="layer1"
     showgrid="false"
     inkscape:window-width="1387"
     inkscape:window-height="876"
     inkscape:window-x="1653"
     inkscape:window-y="24"
     inkscape:window-maximized="1" />
  <metadata
     id="metadata5296">
    <rdf:RDF>
      <cc:Work
         rdf:about="">
        <dc:format>image/svg+xml</dc:format>
        <dc:type
           rdf:resource="http://purl.org/dc/dcmitype/StillImage" />
        <dc:title></dc:title>
      </cc:Work>
    </rdf:RDF>
  </metadata>
  <g
     inkscape:label="Layer 1"
     inkscape:groupmode="layer"
     id="layer1"
     transform="translate(0,-752.36218)">
    <text
       xml:space="preserve"
       style="font-size:48px;font-style:normal;font-weight:normal;line-height:125%;letter-spacing:0px;word-spacing:0px;fill:#000000;fill-opacity:1;stroke:none;font-family:Sans"
       x="-604.25555"
       y="816.48541"
       id="text5299"
       sodipodi:linespacing="125%"
       transform="matrix(0.7824015,-0.62277436,0.62277436,0.7824015,0,0)"><tspan
         sodipodi:role="line"
         id="tspan5301"
         x="-604.25555"
         y="816.48541">Doodle Jump</tspan></text>
    <text
       xml:space="preserve"
       style="font-size:38.59397888px;font-style:normal;font-weight:normal;line-height:125%;letter-spacing:0px;word-spacing:0px;fill:#000000;fill-opacity:1;stroke:none;font-family:Sans"
       x="-398.72314"
       y="886.23035"
       id="text5813"
       sodipodi:linespacing="125%"
       transform="matrix(0.90773858,-0.45525846,0.48003493,0.86088666,0,0)"><tspan
         sodipodi:role="line"
         id="tspan5815"
         x="-398.72314"
         y="886.23035">ub</tspan></text>
    <path
       style="fill:none;stroke:#000000;stroke-width:2;stroke-linecap:butt;stroke-linejoin:miter;stroke-opacity:1;stroke-miterlimit:4;stroke-dasharray:none"
       d="m 83.337585,211.10658 c 0.673435,-1.01016 1.527232,-1.92105 2.020305,-3.03046 0.410262,-0.92309 -0.354688,-2.08462 0,-3.03046 0.344695,-0.91919 1.076203,-1.64733 1.515229,-2.52538 2.210744,-4.42149 0.06842,-0.68754 1.515229,-4.54569 0.264369,-0.70498 0.673435,-1.34687 1.010152,-2.0203 0.505077,-1.01015 1.010153,-2.02031 1.515229,-3.03046 0.336718,-0.67343 0.673435,-1.34687 1.010153,-2.0203 0.505076,-1.01016 0.916656,-2.07275 1.515228,-3.03046 0.252381,-0.40381 0.74601,-0.61394 1.010153,-1.01016 0.417647,-0.62647 0.611104,-1.38182 1.010153,-2.0203 0.446149,-0.71384 1.097582,-1.28942 1.515228,-2.02031 0.264143,-0.46225 0.195627,-1.08199 0.505077,-1.51522 0.55356,-0.77499 1.393158,-1.30357 2.020305,-2.02031 0.554324,-0.63351 0.960904,-1.38679 1.515224,-2.0203 0.62715,-0.71674 1.47416,-1.24009 2.02031,-2.02031 0.64766,-0.92523 0.93416,-2.06202 1.51523,-3.03046 0.4331,-0.72183 1.04828,-1.31989 1.51523,-2.0203 0.54454,-0.81682 0.92621,-1.74003 1.51523,-2.52538 0.42857,-0.57143 1.11901,-0.92091 1.51522,-1.51523 0.29533,-0.44298 0.37596,-0.99873 0.50508,-1.51523 0.2303,-0.92118 -0.92373,-1.05336 1.01015,-2.02031 0.30117,-0.15058 0,0.67344 0,1.01016 0,0.50507 0,1.01015 0,1.51523 0,1.68358 0,3.36717 0,5.05076 0,1.17851 0.24694,2.38318 0,3.53553 -0.26865,1.25372 -0.97792,2.37137 -1.51523,3.53554 -1.12514,2.4378 -2.16419,3.96719 -3.03045,6.56599 -0.27147,0.81441 -0.2117,1.7186 -0.50508,2.52538 -0.38596,1.06139 -1.01015,2.0203 -1.51523,3.03046 -0.50507,1.01015 -1.04788,2.0023 -1.51523,3.03045 -0.37517,0.82538 -0.60469,1.71446 -1.01015,2.52539 -0.43903,0.87805 -1.03848,1.66722 -1.51523,2.52538 -0.36565,0.65817 -0.622775,1.37468 -1.010151,2.0203 -0.122498,0.20417 -0.398596,0.29212 -0.505076,0.50508 -0.926672,1.85334 0.13397,1.59427 -2.020305,3.03046 -0.140083,0.0934 -0.03302,-0.33999 0,-0.50508 0.136136,-0.68068 0.336718,-1.34687 0.505076,-2.02031 0.507934,-2.03173 0.800756,-3.65876 2.020305,-5.55583 0.83936,-1.30567 2.112551,-2.28384 3.030461,-3.53554 4.37246,-5.96245 0.86946,-2.05079 4.54568,-8.5863 0.71004,-1.26228 1.70101,-2.34477 2.52538,-3.53553 5.30378,-7.66101 -0.99434,1.48888 3.53554,-6.06091 0.4331,-0.72184 1.08213,-1.29848 1.51523,-2.02031 0.0866,-0.14437 0.11905,-0.62412 0,-0.50508 -1.08944,1.08944 -1.41743,2.71428 -2.02031,4.04061 -0.46734,1.02816 -1.01015,2.02031 -1.51523,3.03046 -0.67343,1.34687 -1.206,2.77393 -2.0203,4.04061 -0.71106,1.10609 -1.83623,1.91059 -2.52538,3.03046 -0.67199,1.09198 -0.90735,2.40661 -1.51523,3.53553 -2.64678,3.97017 -1.47737,1.94458 -3.53554,6.06092 -1.01015,2.0203 -1.948836,4.07795 -3.030453,6.06091 -2.201139,4.03542 -0.709431,1.06415 -3.030458,4.54569 -0.544544,0.81682 -0.994933,1.69291 -1.515229,2.52538 -0.321723,0.51476 -0.58092,1.086 -1.010152,1.51523 -0.266199,0.2662 0.279199,-0.70898 0.505076,-1.01015 0.285715,-0.38095 0.74601,-0.61394 1.010153,-1.01015 0.04019,-0.0603 4.0164,-7.03879 4.04061,-7.07107 0.714286,-0.95238 1.789879,-1.58929 2.525383,-2.52538 2.31493,-2.94628 2.94628,-4.77017 5.05076,-7.57615 0.78896,-1.05194 1.75198,-1.96703 2.52538,-3.03046 2.71283,-3.73013 0.27066,-1.32592 3.03046,-4.54568 0.46485,-0.54233 1.01015,-1.01015 1.51523,-1.51523 0.33672,-0.33672 0.53396,-1.01015 1.01015,-1.01015 0.33672,0 0.0476,0.67682 0,1.01015 -0.53924,3.77469 -0.2207,1.30937 -1.51523,4.54569 -0.79091,1.97727 -1.20123,4.09514 -2.0203,6.06091 -2.16794,5.20305 -0.85235,0.98654 -4.04061,6.56599 -0.63614,1.11325 -0.90735,2.40661 -1.51523,3.53554 -0.57558,1.06893 -1.32409,2.03586 -2.02031,3.03045 -0.48273,0.68963 -1.16689,1.25397 -1.51523,2.02031 -0.50718,1.11581 -0.62256,2.37276 -1.01015,3.53553 -0.119046,0.35715 -0.36526,0.66062 -0.505074,1.01016 -0.197728,0.49431 -0.266981,1.03903 -0.505077,1.51522 -0.106479,0.21296 -0.718035,0.3986 -0.505076,0.50508 0.649876,0.32494 3.949887,-0.45323 4.040607,-0.50508 0.52705,-0.30116 0.68426,-1.0031 1.01016,-1.51522 0.70556,-1.10875 3.52721,-5.74706 4.54568,-7.07107 0.94639,-1.23031 2.11255,-2.28384 3.03046,-3.53554 0.93926,-1.2808 1.62557,-2.73179 2.52538,-4.04061 3.48472,-5.06868 2.60865,-2.84176 5.55584,-8.08122 0.73826,-1.31246 1.2732,-2.73317 2.02031,-4.04061 2.24528,-3.92925 1.77697,-1.79538 3.03045,-5.55584 0.21952,-0.65853 0.36894,-1.33962 0.50508,-2.0203 0.033,-0.16509 0,-0.67344 0,-0.50508 0,1.80229 0.18758,2.15846 -1.01015,4.04061 -0.70595,1.10935 -1.77692,1.94934 -2.52538,3.03046 -0.77262,1.116 -1.32196,2.37162 -2.02031,3.53553 -0.63722,1.06203 -3.57945,5.78276 -4.54569,7.07107 -1.43569,1.91426 -3.07663,3.66706 -4.54568,5.55584 -0.51681,0.66447 -0.9674,1.38117 -1.51523,2.02031 -0.9297,1.08465 -2.02031,2.0203 -3.03046,3.03045 -1.17851,1.17852 -2.35702,2.35703 -3.53553,3.53554 -0.50508,0.50507 -0.93399,1.10006 -1.51523,1.51523 -0.612681,0.43762 -1.407628,0.57252 -2.020307,1.01015 -1.171688,0.83692 -2.355264,2.65033 -3.535534,3.53553 -0.301169,0.22588 -0.708983,0.2792 -1.010152,0.50508 -0.380953,0.28571 -0.613938,0.74601 -1.010153,1.01015 -0.140083,0.0934 -0.336717,0 -0.505076,0 -0.336718,0 -0.729987,0.18678 -1.010153,0 -0.313235,-0.20882 -0.458382,-0.6366 -0.505076,-1.01015 -0.125294,-1.00235 -0.297071,-2.06498 0,-3.03046 0.399178,-1.29733 1.446301,-2.30552 2.020305,-3.53553 0.608303,-1.30351 0.902738,-2.73907 1.515229,-4.04061 0.738059,-1.56838 1.787322,-2.97731 2.525381,-4.54569 0.612491,-1.30154 0.980999,-2.70503 1.515229,-4.04061 0.476191,-1.19047 0.97792,-2.37136 1.515227,-3.53553 4.36048,-8.72095 -0.31667,1.18117 2.02031,-5.05077 0.26437,-0.70498 1.76307,-2.0203 1.01015,-2.0203 -0.66867,0 -3.169687,3.57024 -3.535534,4.04061 -0.661842,0.85094 -1.358464,1.67444 -2.020305,2.52538 -0.516812,0.66447 -0.948977,1.39743 -1.515229,2.02031 -1.121121,1.23323 -2.357023,2.35702 -3.535534,3.53553 -0.841794,0.84179 -1.811096,1.573 -2.525381,2.52538 -0.814411,1.08588 -1.267382,2.40615 -2.020306,3.53554 -0.597979,0.89696 -1.422326,1.62841 -2.020305,2.52538 -0.417646,0.62647 -0.592505,1.39383 -1.010152,2.0203 -0.264143,0.39622 -0.822572,0.57247 -1.010153,1.01015 -0.338165,0.78906 -0.02889,3.23967 -0.505076,2.52539 -2.01921,-3.02882 0.360467,-5.60673 1.515229,-8.08122 1.864166,-3.99465 1.22867,-3.47506 3.535534,-7.57615 0.778678,-1.38432 1.746702,-2.65629 2.525381,-4.04061 0.738258,-1.31246 1.282047,-2.72815 2.020305,-4.04061 0.778679,-1.38432 1.746703,-2.65629 2.525382,-4.04061 0.738258,-1.31246 1.222208,-2.76365 2.020305,-4.04061 2.008852,-3.21416 3.735299,-4.66912 6.060919,-7.57614 1.05172,-1.31466 2.0203,-2.69374 3.03045,-4.04061 2.08666,-2.78221 0.91999,-1.42507 3.53554,-4.04061 0.33672,-0.33672 0.53396,-1.01016 1.01015,-1.01016 0.33672,0 0,0.67344 0,1.01016 0,0.50507 0.0626,1.01405 0,1.51523 -0.10299,0.8239 -0.73208,3.61877 -1.01015,4.54568 -0.30597,1.01989 -0.72999,2.00318 -1.01016,3.03046 -0.72728,2.66673 -0.29516,3.2141 -1.51522,6.06091 -1.72995,4.03655 -2.23327,2.58005 -3.03046,6.566 -0.29899,1.49494 0.002,3.10804 -0.50508,4.54568 -3.84443,6.15109 -1.57244,1.68686 -3.53553,7.57615 -2.368961,7.10687 0.56546,-2.6864 -2.525383,5.55584 -0.226387,0.60369 0.558255,2.0203 -1.010153,2.0203 -0.336717,0 -0.05536,-0.67802 0,-1.01015 0.11412,-0.68472 0.160676,-1.41761 0.505077,-2.02031 0.354385,-0.62017 1.233858,-0.85869 1.515228,-1.51523 0.26528,-0.61898 -0.163331,-1.36697 0,-2.0203 0.279385,-1.11754 2.148001,-3.69658 2.525381,-4.54569 0.28193,-0.63433 0.19464,-1.39943 0.50508,-2.0203 0.37646,-0.75293 1.04828,-1.31989 1.51523,-2.02031 5.1262,-7.6893 -1.75347,2.43723 2.52538,-5.05076 1.27635,-1.27635 0.79719,-0.58424 1.51523,-2.02031"
       id="path5819"
       inkscape:connector-curvature="0"
       transform="translate(0,752.36218)" />
  </g>
</svg>
